<?xml version="1.0" standalone="no"?>
<!DOCTYPE svg PUBLIC "-//W3C//DTD SVG 20010904//EN"
 "http://www.w3.org/TR/2001/REC-SVG-20010904/DTD/svg10.dtd">
<svg version="1.0" xmlns="http://www.w3.org/2000/svg"
 width="3558.000000pt" height="3558.000000pt" viewBox="0 0 3558.000000 3558.000000"
 preserveAspectRatio="xMidYMid meet">
<metadata>
Created by potrace 1.14, written by Peter Selinger 2001-2017
</metadata>
<g transform="translate(0.000000,3558.000000) scale(0.100000,-0.100000)"
fill="#000000" stroke="none">
<path d="M13643 26268 c74 -163 113 -306 143 -523 15 -111 17 -549 19 -5620 1
-3025 -2 -5555 -6 -5622 -11 -158 -33 -307 -65 -429 -22 -84 -38 -129 -91
-251 -4 -10 70 -13 351 -13 196 0 356 2 356 5 0 3 -8 22 -19 43 -53 106 -105
309 -132 517 -8 67 -12 1330 -14 4865 -1 2626 1 4785 4 4797 6 21 108 -401
672 -2767 322 -1350 324 -1356 419 -1595 70 -176 161 -359 326 -656 236 -425
353 -669 439 -919 119 -341 189 -687 231 -1140 21 -223 24 -898 5 -1135 -39
-489 -21 -700 85 -1025 89 -269 223 -501 388 -666 126 -127 188 -161 315 -175
78 -8 301 -2 301 8 0 4 95 407 165 698 13 55 103 433 200 840 97 407 187 785
200 840 13 55 126 528 250 1050 124 523 239 1004 255 1070 15 66 101 426 190
800 89 374 163 685 164 690 3 9 248 -480 561 -1120 56 -115 185 -376 285 -580
100 -203 240 -487 310 -630 70 -143 207 -422 305 -620 97 -198 231 -469 296
-602 l119 -242 -5 -2868 c-3 -1934 -7 -2899 -15 -2963 -21 -192 -70 -391 -126
-519 -13 -29 -24 -55 -24 -57 0 -2 248 -4 550 -4 303 0 550 1 550 3 0 2 -16
42 -35 90 -66 164 -106 361 -123 602 -4 66 -6 1383 -4 2926 l4 2805 47 50 c26
27 136 144 246 259 110 116 245 257 301 315 260 271 782 833 964 1040 41 47
77 87 80 90 16 15 279 322 360 420 195 235 239 288 357 440 284 366 646 885
835 1200 408 678 646 1374 714 2081 22 234 15 651 -15 850 -38 260 -94 485
-163 661 -87 223 -273 547 -437 758 -181 235 -438 499 -647 665 -193 154 -422
300 -653 415 -133 67 -352 164 -356 158 -3 -5 -63 -263 -62 -264 1 -1 50 -9
108 -17 420 -62 842 -313 1155 -690 294 -352 496 -865 570 -1447 20 -160 15
-511 -10 -675 -82 -547 -320 -1142 -727 -1818 -208 -345 -641 -974 -979 -1422
-277 -368 -702 -905 -1074 -1359 -122 -148 -243 -297 -271 -331 -27 -34 -111
-135 -185 -225 -74 -89 -146 -177 -160 -194 -74 -95 -293 -356 -299 -356 -3 0
-26 40 -49 90 -24 49 -136 277 -249 507 -113 230 -243 495 -288 588 -46 94
-158 323 -250 510 -92 187 -216 439 -275 560 -59 121 -183 373 -275 560 -92
187 -203 413 -246 502 -43 89 -164 334 -269 544 l-191 381 76 322 c42 176 143
602 225 946 82 344 275 1156 430 1805 154 649 315 1325 357 1503 42 177 80
319 83 315 9 -10 26 -119 41 -248 7 -71 10 -1036 9 -3280 l-1 -3180 105 -213
c59 -117 106 -214 106 -216 0 -2 68 -142 151 -312 84 -170 204 -417 268 -549
64 -132 122 -249 129 -260 9 -15 12 870 11 3930 0 3523 2 3966 16 4100 24 224
74 434 131 548 l24 47 -549 0 -550 0 -26 -23 c-31 -26 -11 52 -345 -1352 -72
-302 -142 -595 -155 -650 -13 -55 -72 -300 -130 -545 -58 -245 -115 -481 -125
-525 -11 -44 -80 -336 -155 -650 -75 -313 -144 -606 -155 -650 -10 -44 -42
-177 -70 -295 -28 -118 -53 -222 -56 -230 -5 -15 -56 92 -125 263 -81 202
-139 433 -139 553 l0 54 -556 0 -555 0 83 -91 c227 -247 469 -651 738 -1229
24 -52 101 -214 172 -359 l128 -263 -25 -102 c-13 -55 -54 -225 -90 -376 -88
-372 -99 -415 -305 -1280 -99 -415 -264 -1106 -366 -1535 -102 -429 -199 -836
-215 -905 -43 -179 -284 -1186 -329 -1375 -35 -148 -38 -157 -45 -120 -84 461
-191 903 -371 1538 -85 299 -122 448 -454 1837 -99 415 -198 829 -219 920 -64
267 -195 815 -259 1085 -114 479 -902 3791 -942 3955 -21 91 -71 300 -110 465
-39 165 -100 419 -136 565 -126 512 -155 681 -156 920 -1 146 16 271 47 359
l14 41 -521 0 c-412 0 -519 -3 -515 -12z"/>
<path d="M20234 15640 c-941 -1258 -1519 -2409 -1813 -3611 -343 -1400 -263
-2557 244 -3554 143 -280 332 -554 609 -880 165 -193 559 -615 574 -615 8 1
225 320 220 325 -2 1 -44 21 -95 43 -352 158 -681 445 -923 807 -328 490 -518
1018 -597 1655 -22 179 -25 720 -5 900 115 1042 453 2019 1049 3030 233 396
594 916 830 1197 l43 51 -2 414 -3 413 -131 -175z"/>
</g>
</svg>
